STARTFONT 2.1
COMMENT "$XConsortium: us8x16.bdf /main/2 1996/10/29 18:53:47 drk $"
COMMENT "Hand-pixeled glyphs created with modified X Font Editor (Xfed)"
FONT -HP-HP User-Medium-R-Normal-Serif-12-120-72-72-M-80-ISO8859-1
SIZE 12 72 72 
FONTBOUNDINGBOX 8 16 0 -4
STARTPROPERTIES 25
COMMENT "Begin X Logical Font Description (XLFD) Version 1.5"
COPYRIGHT "(c) Copyright 1994, Hewlett Packard Company"
NOTICE "Created by the User Interaction Design Group, July 1994."
NOTICE "Hewlett Packard Company, 3000 Hanover St., Palo Alto, CA 94303, USA"
FONTNAME_REGISTRY ""
FOUNDRY "HP"
FAMILY_NAME "HP User"
WEIGHT_NAME "Medium"
SLANT "R"
ADD_STYLE_NAME "Serif"
SETWIDTH_NAME "Normal"
PIXEL_SIZE 12
POINT_SIZE 120
RESOLUTION_X 72
RESOLUTION_Y 72
SPACING "M"
AVERAGE_WIDTH 80
CHARSET_REGISTRY "ISO8859"
CHARSET_ENCODING "1"
COMMENT "End X Logical Font Description (XLFD)"
CHARSET_COLLECTIONS "ISO8859-1"
FULL_NAME "HP User8x16"
CAP_HEIGHT 9
X_HEIGHT 6
FONT_ASCENT 12
FONT_DESCENT 4
DEFAULT_CHAR 32
COMMENT "End of Font Properties"
ENDPROPERTIES
CHARS 223
STARTCHAR Null
ENCODING 0
SWIDTH 666 0
DWIDTH 8 0
BBX 7 16 1 -4
BITMAP
88
c8
a8
98
88
22
22
22
22
1c
00
10
10
10
10
1e
ENDCHAR
STARTCHAR StartOfHeading
ENCODING 1
SWIDTH 666 0
DWIDTH 8 0
BBX 7 16 1 -4
BITMAP
70
80
60
10
e0
1c
22
22
22
1c
00
12
12
1e
12
12
ENDCHAR
STARTCHAR StartOfText
ENCODING 2
SWIDTH 666 0
DWIDTH 8 0
BBX 7 16 1 -4
BITMAP
78
80
70
08
f0
00
7c
10
10
10
10
22
14
08
14
22
ENDCHAR
STARTCHAR EndOfText
ENCODING 3
SWIDTH 666 0
DWIDTH 8 0
BBX 7 16 1 -4
BITMAP
f0
80
e0
80
f0
00
7c
10
10
10
10
22
14
08
14
22
ENDCHAR
STARTCHAR EndOfTransmit
ENCODING 4
SWIDTH 666 0
DWIDTH 8 0
BBX 7 16 1 -4
BITMAP
f0
80
e0
80
f0
00
38
44
44
38
00
3e
08
08
08
08
ENDCHAR
STARTCHAR Enquiry
ENCODING 5
SWIDTH 666 0
DWIDTH 8 0
BBX 7 16 1 -4
BITMAP
f0
80
e0
80
f0
00
48
68
58
48
00
1c
22
2a
24
1a
ENDCHAR
STARTCHAR Acknowledge
ENCODING 6
SWIDTH 666 0
DWIDTH 8 0
BBX 6 16 1 -4
BITMAP
60
90
f0
90
90
00
30
48
40
48
30
24
28
30
28
24
ENDCHAR
STARTCHAR Bell
ENCODING 7
SWIDTH 666 0
DWIDTH 8 0
BBX 7 16 1 -4
BITMAP
00
00
00
10
28
44
44
44
44
82
82
FE
08
0c
00
00
ENDCHAR
STARTCHAR BackSpace
ENCODING 8
SWIDTH 666 0
DWIDTH 8 0
BBX 7 16 1 -4
BITMAP
00
00
f0
48
70
48
f0
00
0E
10
0C
02
1C
00
00
00
ENDCHAR
STARTCHAR HorizontalTab
ENCODING 9
SWIDTH 666 0
DWIDTH 8 0
BBX 7 16 1 -4
BITMAP
00
00
90
90
F0
90
90
00
3E
08
08
08
08
00
00
00
ENDCHAR
STARTCHAR LineFeed
ENCODING 10
SWIDTH 666 0
DWIDTH 8 0
BBX 7 16 1 -4
BITMAP
00
00
80
80
80
80
F0
00
1E
10
1C
10
10
00
00
00
ENDCHAR
STARTCHAR VerticalTab
ENCODING 11
SWIDTH 666 0
DWIDTH 8 0
BBX 7 16 1 -4
BITMAP
00
88
88
50
50
20
20
00
3E
08
08
08
08
00
00
00
ENDCHAR
STARTCHAR FormFeed
ENCODING 12
SWIDTH 666 0
DWIDTH 8 0
BBX 7 16 1 -4
BITMAP
00
00
F0
80
E0
80
80
00
1E
10
1C
10
10
00
00
00
ENDCHAR
STARTCHAR CarriageReturn
ENCODING 13
SWIDTH 666 0
DWIDTH 8 0
BBX 7 16 1 -4
BITMAP
00
60
90
80
80
90
60
00
1C
12
1C
12
12
00
00
00
ENDCHAR
STARTCHAR ShiftOut
ENCODING 14
SWIDTH 666 0
DWIDTH 8 0
BBX 7 16 1 -4
BITMAP
00
00
70
80
60
10
E0
00
0C
12
12
12
0C
00
00
00
ENDCHAR
STARTCHAR ShiftIn
ENCODING 15
SWIDTH 666 0
DWIDTH 8 0
BBX 6 16 1 -4
BITMAP
00
00
70
80
60
10
E0
00
1C
08
08
08
1C
00
00
00
ENDCHAR
STARTCHAR DataLinkEscape
ENCODING 16
SWIDTH 666 0
DWIDTH 8 0
BBX 6 16 1 -4
BITMAP
f0
48
48
48
f0
00
20
20
20
38
00
1c
10
18
10
1c
ENDCHAR
STARTCHAR DevCtrl1orXon
ENCODING 17
SWIDTH 666 0
DWIDTH 8 0
BBX 7 16 1 -4
BITMAP
f0
48
48
48
f0
00
70
88
80
88
70
04
0c
04
04
0e
ENDCHAR
STARTCHAR DeviceControl2
ENCODING 18
SWIDTH 666 0
DWIDTH 8 0
BBX 7 16 1 -4
BITMAP
f0
48
48
48
48
f0
38
44
40
44
38
0c
12
04
08
1e
ENDCHAR
STARTCHAR DevCtrl3orXoff
ENCODING 19
SWIDTH 666 0
DWIDTH 8 0
BBX 7 16 1 -4
BITMAP
f0
48
48
48
f0
00
70
88
80
88
70
1c
22
0c
22
1c
ENDCHAR
STARTCHAR DeviceControl4
ENCODING 20
SWIDTH 666 0
DWIDTH 8 0
BBX 7 16 1 -4
BITMAP
f0
48
48
48
f0
00
70
88
80
88
74
0c
14
24
3e
04
ENDCHAR
STARTCHAR NegAcknowledge
ENCODING 21
SWIDTH 666 0
DWIDTH 8 0
BBX 7 16 1 -4
BITMAP
88
c8
a8
98
88
00
38
44
7c
44
44
12
14
18
14
12
ENDCHAR
STARTCHAR SynchronusIdle
ENCODING 22
SWIDTH 666 0
DWIDTH 8 0
BBX 7 16 1 -4
BITMAP
78
80
70
08
f0
00
44
28
10
10
10
22
32
2a
26
22
ENDCHAR
STARTCHAR EndTransmit
ENCODING 23
SWIDTH 666 0
DWIDTH 8 0
BBX 7 16 1 -4
BITMAP
f8
80
F0
80
f8
00
7c
10
10
10
00
3c
12
1c
12
3c
ENDCHAR
STARTCHAR Cancel
ENCODING 24
SWIDTH 666 0
DWIDTH 8 0
BBX 7 16 1 -4
BITMAP
70
88
80
88
70
00
38
44
7c
44
44
22
32
2a
26
22
ENDCHAR
STARTCHAR EndOfMedium
ENCODING 25
SWIDTH 666 0
DWIDTH 8 0
BBX 7 16 1 -4
BITMAP
00
00
F0
80
E0
80
F0
00
22
36
2A
22
22
00
00
00
ENDCHAR
STARTCHAR Substitute
ENCODING 26
SWIDTH 666 0
DWIDTH 8 0
BBX 6 16 1 -4
BITMAP
70
80
60
10
e0
00
48
48
48
30
00
78
24
38
24
78
ENDCHAR
STARTCHAR Escape
ENCODING 27
SWIDTH 666 0
DWIDTH 8 0
BBX 7 16 1 -4
BITMAP
f0
80
e0
80
f0
00
38
40
30
08
70
0c
12
10
12
0c
ENDCHAR
STARTCHAR FileSeparator
ENCODING 28
SWIDTH 666 0
DWIDTH 8 0
BBX 7 16 1 -4
BITMAP
00
00
F0
80
E0
80
80
00
0c
12
10
0c
02
12
0c
00
ENDCHAR
STARTCHAR GroupSeparator
ENCODING 29
SWIDTH 666 0
DWIDTH 8 0
BBX 7 16 1 -4
BITMAP
00
70
90
80
B0
90
60
00
0c
12
10
0c
02
12
0c
00
ENDCHAR
STARTCHAR RecordSeparatr
ENCODING 30
SWIDTH 666 0
DWIDTH 8 0
BBX 7 16 1 -4
BITMAP
00
e0
90
90
E0
90
90
00
0c
12
10
0c
02
12
0c
00
ENDCHAR
STARTCHAR UnitSeparator
ENCODING 31
SWIDTH 666 0
DWIDTH 8 0
BBX 7 16 1 -4
BITMAP
00
00
90
90
90
90
60
00
0c
12
10
0c
02
12
0c
00
ENDCHAR
STARTCHAR PrintableSpace
ENCODING 32
SWIDTH 666 0
DWIDTH 8 0
BBX 8 16 0 -4
BITMAP
00
00
00
00
00
00
00
00
00
00
00
00
00
00
00
00
ENDCHAR
STARTCHAR Exclamation
ENCODING 33
SWIDTH 666 0
DWIDTH 8 0
BBX 2 16 3 -4
BITMAP
00
00
C0
C0
C0
C0
C0
C0
C0
00
00
C0
C0
00
00
00
ENDCHAR
STARTCHAR NeutrlDblQuote
ENCODING 34
SWIDTH 666 0
DWIDTH 8 0
BBX 4 16 2 -4
BITMAP
00
00
90
90
90
90
90
00
00
00
00
00
00
00
00
00
ENDCHAR
STARTCHAR NumberSign
ENCODING 35
SWIDTH 666 0
DWIDTH 8 0
BBX 7 16 1 -4
BITMAP
00
00
28
28
28
FE
28
28
28
FE
28
28
28
00
00
00
ENDCHAR
STARTCHAR DollarSign
ENCODING 36
SWIDTH 666 0
DWIDTH 8 0
BBX 6 16 2 -4
BITMAP
00
20
20
78
88
80
c0
70
18
08
88
F0
20
20
00
00
ENDCHAR
STARTCHAR PerCentSign
ENCODING 37
SWIDTH 666 0
DWIDTH 8 0
BBX 8 16 0 -4
BITMAP
00
02
62
94
94
68
08
10
10
26
29
49
46
00
00
00
ENDCHAR
STARTCHAR Ampersand
ENCODING 38
SWIDTH 666 0
DWIDTH 8 0
BBX 7 16 1 -4
BITMAP
00
00
60
90
90
90
50
60
64
94
88
98
64
00
00
00
ENDCHAR
STARTCHAR SingleCloseQut
ENCODING 39
SWIDTH 666 0
DWIDTH 8 0
BBX 3 16 2 -4
BITMAP
00
00
60
60
20
40
80
00
00
00
00
00
00
00
00
00
ENDCHAR
STARTCHAR OpenParen
ENCODING 40
SWIDTH 666 0
DWIDTH 8 0
BBX 4 16 3 -4
BITMAP
00
10
20
60
40
C0
C0
C0
C0
C0
40
60
20
10
00
00
ENDCHAR
STARTCHAR CloseParen
ENCODING 41
SWIDTH 666 0
DWIDTH 8 0
BBX 4 16 2 -4
BITMAP
00
80
40
60
20
30
30
30
30
30
20
60
40
80
00
00
ENDCHAR
STARTCHAR Asterisk
ENCODING 42
SWIDTH 666 0
DWIDTH 8 0
BBX 7 16 1 -4
BITMAP
00
00
00
00
10
92
54
38
54
92
10
00
00
00
00
00
ENDCHAR
STARTCHAR PlusSign
ENCODING 43
SWIDTH 666 0
DWIDTH 8 0
BBX 7 16 1 -4
BITMAP
00
00
00
00
10
10
10
FE
10
10
10
00
00
00
00
00
ENDCHAR
STARTCHAR Comma
ENCODING 44
SWIDTH 666 0
DWIDTH 8 0
BBX 3 16 2 -4
BITMAP
00
00
00
00
00
00
00
00
00
00
60
60
20
40
80
00
ENDCHAR
STARTCHAR Hyphen
ENCODING 45
SWIDTH 666 0
DWIDTH 8 0
BBX 7 16 1 -4
BITMAP
00
00
00
00
00
00
00
FE
00
00
00
00
00
00
00
00
ENDCHAR
STARTCHAR Period
ENCODING 46
SWIDTH 666 0
DWIDTH 8 0
BBX 2 16 3 -4
BITMAP
00
00
00
00
00
00
00
00
00
00
C0
C0
00
00
00
00
ENDCHAR
STARTCHAR Slash
ENCODING 47
SWIDTH 666 0
DWIDTH 8 0
BBX 7 16 1 -4
BITMAP
00
02
02
04
04
08
08
10
10
20
20
40
40
80
00
00
ENDCHAR
STARTCHAR Zero
ENCODING 48
SWIDTH 666 0
DWIDTH 8 0
BBX 6 16 1 -4
BITMAP
00
00
00
78
84
84
B4
B4
84
84
84
78
00
00
00
00
ENDCHAR
STARTCHAR One
ENCODING 49
SWIDTH 666 0
DWIDTH 8 0
BBX 3 16 2 -4
BITMAP
00
00
00
20
60
a0
20
20
20
20
20
20
00
00
00
00
ENDCHAR
STARTCHAR Two
ENCODING 50
SWIDTH 666 0
DWIDTH 8 0
BBX 6 16 1 -4
BITMAP
00
00
00
78
84
84
04
18
60
80
84
FC
00
00
00
00
ENDCHAR
STARTCHAR Three
ENCODING 51
SWIDTH 666 0
DWIDTH 8 0
BBX 6 16 1 -4
BITMAP
00
00
00
78
84
04
08
38
04
04
84
78
00
00
00
00
ENDCHAR
STARTCHAR Four
ENCODING 52
SWIDTH 666 0
DWIDTH 8 0
BBX 6 16 1 -4
BITMAP
00
00
10
10
20
20
48
48
88
FC
08
08
00
00
00
00
ENDCHAR
STARTCHAR Five
ENCODING 53
SWIDTH 666 0
DWIDTH 8 0
BBX 6 16 1 -4
BITMAP
00
00
00
7C
40
40
78
04
04
04
84
78
00
00
00
00
ENDCHAR
STARTCHAR Six
ENCODING 54
SWIDTH 666 0
DWIDTH 8 0
BBX 6 16 1 -4
BITMAP
00
00
00
38
40
80
B8
C4
84
84
84
78
00
00
00
00
ENDCHAR
STARTCHAR Seven
ENCODING 55
SWIDTH 666 0
DWIDTH 8 0
BBX 6 16 1 -4
BITMAP
00
00
00
FC
04
08
08
10
10
20
20
20
00
00
00
00
ENDCHAR
STARTCHAR Eight
ENCODING 56
SWIDTH 666 0
DWIDTH 8 0
BBX 6 16 1 -4
BITMAP
00
00
00
78
84
84
84
78
84
84
84
78
00
00
00
00
ENDCHAR
STARTCHAR Nine
ENCODING 57
SWIDTH 666 0
DWIDTH 8 0
BBX 6 16 1 -4
BITMAP
00
00
00
78
84
84
84
8C
74
04
08
70
00
00
00
00
ENDCHAR
STARTCHAR Colon
ENCODING 58
SWIDTH 666 0
DWIDTH 8 0
BBX 2 16 3 -4
BITMAP
00
00
00
00
00
00
C0
C0
00
00
C0
C0
00
00
00
00
ENDCHAR
STARTCHAR Simicolon
ENCODING 59
SWIDTH 666 0
DWIDTH 8 0
BBX 3 16 2 -4
BITMAP
00
00
00
00
00
00
60
60
00
00
60
60
20
40
80
00
ENDCHAR
STARTCHAR LessThanSign
ENCODING 60
SWIDTH 666 0
DWIDTH 8 0
BBX 7 16 1 -4
BITMAP
00
00
00
00
02
0e
38
e0
38
0e
02
00
00
00
00
00
ENDCHAR
STARTCHAR EqualsSign
ENCODING 61
SWIDTH 666 0
DWIDTH 8 0
BBX 7 16 1 -4
BITMAP
00
00
00
00
00
00
FE
00
FE
00
00
00
00
00
00
00
ENDCHAR
STARTCHAR GreatrThanSign
ENCODING 62
SWIDTH 666 0
DWIDTH 8 0
BBX 7 16 1 -4
BITMAP
00
00
00
00
80
e0
38
0e
38
e0
80
00
00
00
00
00
ENDCHAR
STARTCHAR QuestionMark
ENCODING 63
SWIDTH 666 0
DWIDTH 8 0
BBX 6 16 1 -4
BITMAP
00
00
78
CC
CC
0C
18
30
30
00
00
30
30
00
00
00
ENDCHAR
STARTCHAR CommerclAtSign
ENCODING 64
SWIDTH 666 0
DWIDTH 8 0
BBX 7 16 1 -4
BITMAP
00
00
38
44
42
9a
Aa
Aa
Aa
94
40
44
38
00
00
00
ENDCHAR
STARTCHAR A
ENCODING 65
SWIDTH 666 0
DWIDTH 8 0
BBX 7 16 1 -4
BITMAP
00
00
00
10
10
28
28
44
7c
44
44
ee
00
00
00
00
ENDCHAR
STARTCHAR B
ENCODING 66
SWIDTH 666 0
DWIDTH 8 0
BBX 7 16 1 -4
BITMAP
00
00
00
F8
44
44
44
7c
42
42
42
Fc
00
00
00
00
ENDCHAR
STARTCHAR C
ENCODING 67
SWIDTH 666 0
DWIDTH 8 0
BBX 6 16 1 -4
BITMAP
00
00
00
3C
44
80
80
80
80
80
44
38
00
00
00
00
ENDCHAR
STARTCHAR D
ENCODING 68
SWIDTH 666 0
DWIDTH 8 0
BBX 7 16 1 -4
BITMAP
00
00
00
F8
44
42
42
42
42
42
44
F8
00
00
00
00
ENDCHAR
STARTCHAR E
ENCODING 69
SWIDTH 666 0
DWIDTH 8 0
BBX 6 16 1 -4
BITMAP
00
00
00
FC
44
40
48
78
48
40
44
FC
00
00
00
00
ENDCHAR
STARTCHAR F
ENCODING 70
SWIDTH 666 0
DWIDTH 8 0
BBX 6 16 1 -4
BITMAP
00
00
00
FC
44
40
48
78
48
40
40
e0
00
00
00
00
ENDCHAR
STARTCHAR G
ENCODING 71
SWIDTH 666 0
DWIDTH 8 0
BBX 7 16 1 -4
BITMAP
00
00
00
3C
44
80
80
80
9E
84
44
38
00
00
00
00
ENDCHAR
STARTCHAR H
ENCODING 72
SWIDTH 666 0
DWIDTH 8 0
BBX 7 16 1 -4
BITMAP
00
00
00
EE
44
44
44
7C
44
44
44
EE
00
00
00
00
ENDCHAR
STARTCHAR I
ENCODING 73
SWIDTH 666 0
DWIDTH 8 0
BBX 5 16 2 -4
BITMAP
00
00
00
F8
20
20
20
20
20
20
20
F8
00
00
00
00
ENDCHAR
STARTCHAR J
ENCODING 74
SWIDTH 666 0
DWIDTH 8 0
BBX 6 16 1 -4
BITMAP
00
00
00
3C
08
08
08
08
08
88
88
70
00
00
00
00
ENDCHAR
STARTCHAR K
ENCODING 75
SWIDTH 666 0
DWIDTH 8 0
BBX 7 16 1 -4
BITMAP
00
00
00
EE
44
48
50
78
48
4c
44
E6
00
00
00
00
ENDCHAR
STARTCHAR L
ENCODING 76
SWIDTH 666 0
DWIDTH 8 0
BBX 6 16 1 -4
BITMAP
00
00
00
e0
40
40
40
40
40
40
44
Fc
00
00
00
00
ENDCHAR
STARTCHAR M
ENCODING 77
SWIDTH 666 0
DWIDTH 8 0
BBX 7 16 1 -4
BITMAP
00
00
00
C6
6C
6C
54
54
54
44
44
EE
00
00
00
00
ENDCHAR
STARTCHAR N
ENCODING 78
SWIDTH 666 0
DWIDTH 8 0
BBX 7 16 1 -4
BITMAP
00
00
00
CE
64
64
54
54
4c
4C
44
E4
00
00
00
00
ENDCHAR
STARTCHAR O
ENCODING 79
SWIDTH 666 0
DWIDTH 8 0
BBX 7 16 1 -4
BITMAP
00
00
00
38
44
82
82
82
82
82
44
38
00
00
00
00
ENDCHAR
STARTCHAR P
ENCODING 80
SWIDTH 666 0
DWIDTH 8 0
BBX 6 16 1 -4
BITMAP
00
00
00
F8
44
44
44
78
40
40
40
F0
00
00
00
00
ENDCHAR
STARTCHAR Q
ENCODING 81
SWIDTH 666 0
DWIDTH 8 0
BBX 7 16 1 -4
BITMAP
00
00
00
38
44
82
82
82
82
82
54
38
08
04
02
00
ENDCHAR
STARTCHAR R
ENCODING 82
SWIDTH 666 0
DWIDTH 8 0
BBX 7 16 1 -4
BITMAP
00
00
00
F8
44
44
44
78
48
44
44
E6
00
00
00
00
ENDCHAR
STARTCHAR S
ENCODING 83
SWIDTH 666 0
DWIDTH 8 0
BBX 5 16 2 -4
BITMAP
00
00
00
78
88
80
c0
70
18
08
88
F0
00
00
00
00
ENDCHAR
STARTCHAR T
ENCODING 84
SWIDTH 666 0
DWIDTH 8 0
BBX 7 16 1 -4
BITMAP
00
00
00
FE
92
10
10
10
10
10
10
38
00
00
00
00
ENDCHAR
STARTCHAR U
ENCODING 85
SWIDTH 666 0
DWIDTH 8 0
BBX 7 16 1 -4
BITMAP
00
00
00
EE
44
44
44
44
44
44
44
38
00
00
00
00
ENDCHAR
STARTCHAR V
ENCODING 86
SWIDTH 666 0
DWIDTH 8 0
BBX 7 16 1 -4
BITMAP
00
00
00
EE
44
44
28
28
28
10
10
10
00
00
00
00
ENDCHAR
STARTCHAR W
ENCODING 87
SWIDTH 666 0
DWIDTH 8 0
BBX 8 16 0 -4
BITMAP
00
00
00
E7
42
42
42
5A
5A
24
24
24
00
00
00
00
ENDCHAR
STARTCHAR X
ENCODING 88
SWIDTH 666 0
DWIDTH 8 0
BBX 7 16 1 -4
BITMAP
00
00
00
ee
44
28
28
10
28
28
44
ee
00
00
00
00
ENDCHAR
STARTCHAR Y
ENCODING 89
SWIDTH 666 0
DWIDTH 8 0
BBX 7 16 1 -4
BITMAP
00
00
00
ee
44
28
28
10
10
10
10
38
00
00
00
00
ENDCHAR
STARTCHAR Z
ENCODING 90
SWIDTH 666 0
DWIDTH 8 0
BBX 5 16 2 -4
BITMAP
00
00
00
f8
88
10
10
20
40
40
88
f8
00
00
00
00
ENDCHAR
STARTCHAR OpenBracket
ENCODING 91
SWIDTH 666 0
DWIDTH 8 0
BBX 4 16 3 -4
BITMAP
00
F0
C0
C0
C0
C0
C0
C0
C0
C0
C0
C0
C0
F0
00
00
ENDCHAR
STARTCHAR BackSlash
ENCODING 92
SWIDTH 666 0
DWIDTH 8 0
BBX 7 16 1 -4
BITMAP
00
80
80
40
40
20
20
10
10
08
08
04
04
02
00
00
ENDCHAR
STARTCHAR CloseBracket
ENCODING 93
SWIDTH 666 0
DWIDTH 8 0
BBX 4 16 2 -4
BITMAP
00
F0
30
30
30
30
30
30
30
30
30
30
30
F0
00
00
ENDCHAR
STARTCHAR Circumflex
ENCODING 94
SWIDTH 666 0
DWIDTH 8 0
BBX 5 16 2 -4
BITMAP
00
00
00
20
70
88
00
00
00
00
00
00
00
00
00
00
ENDCHAR
STARTCHAR Underscore
ENCODING 95
SWIDTH 666 0
DWIDTH 8 0
BBX 8 16 0 -4
BITMAP
00
00
00
00
00
00
00
00
00
00
00
00
FF
00
00
00
ENDCHAR
STARTCHAR SingleOpenQuot
ENCODING 96
SWIDTH 666 0
DWIDTH 8 0
BBX 3 16 3 -4
BITMAP
00
00
20
40
80
C0
C0
00
00
00
00
00
00
00
00
00
ENDCHAR
STARTCHAR a
ENCODING 97
SWIDTH 666 0
DWIDTH 8 0
BBX 6 16 1 -4
BITMAP
00
00
00
00
00
00
70
08
78
88
98
6C
00
00
00
00
ENDCHAR
STARTCHAR b
ENCODING 98
SWIDTH 666 0
DWIDTH 8 0
BBX 7 16 1 -4
BITMAP
00
00
00
C0
40
40
5C
62
42
42
62
5C
00
00
00
00
ENDCHAR
STARTCHAR c
ENCODING 99
SWIDTH 666 0
DWIDTH 8 0
BBX 5 16 2 -4
BITMAP
00
00
00
00
00
00
78
88
80
80
88
70
00
00
00
00
ENDCHAR
STARTCHAR d
ENCODING 100
SWIDTH 666 0
DWIDTH 8 0
BBX 7 16 1 -4
BITMAP
00
00
00
0C
04
04
74
8C
84
84
8C
76
00
00
00
00
ENDCHAR
STARTCHAR e
ENCODING 101
SWIDTH 666 0
DWIDTH 8 0
BBX 5 16 2 -4
BITMAP
00
00
00
00
00
00
70
88
F8
80
88
70
00
00
00
00
ENDCHAR
STARTCHAR f
ENCODING 102
SWIDTH 666 0
DWIDTH 8 0
BBX 6 16 1 -4
BITMAP
00
00
00
1C
20
20
f8
20
20
20
20
f8
00
00
00
00
ENDCHAR
STARTCHAR g
ENCODING 103
SWIDTH 666 0
DWIDTH 8 0
BBX 6 16 2 -4
BITMAP
00
00
00
00
00
00
74
88
88
70
80
78
84
84
78
00
ENDCHAR
STARTCHAR h
ENCODING 104
SWIDTH 666 0
DWIDTH 8 0
BBX 7 16 1 -4
BITMAP
00
00
00
C0
40
40
58
64
44
44
44
EE
00
00
00
00
ENDCHAR
STARTCHAR i
ENCODING 105
SWIDTH 666 0
DWIDTH 8 0
BBX 6 16 2 -4
BITMAP
00
00
00
20
20
00
E0
20
20
20
20
F8
00
00
00
00
ENDCHAR
STARTCHAR j
ENCODING 106
SWIDTH 666 0
DWIDTH 8 0
BBX 4 16 2 -4
BITMAP
00
00
00
10
10
00
70
10
10
10
10
10
10
90
60
00
ENDCHAR
STARTCHAR k
ENCODING 107
SWIDTH 666 0
DWIDTH 8 0
BBX 7 16 1 -4
BITMAP
00
00
00
C0
40
40
4C
48
70
50
48
E6
00
00
00
00
ENDCHAR
STARTCHAR l
ENCODING 108
SWIDTH 666 0
DWIDTH 8 0
BBX 5 16 2 -4
BITMAP
00
00
00
E0
20
20
20
20
20
20
20
F8
00
00
00
00
ENDCHAR
STARTCHAR m
ENCODING 109
SWIDTH 666 0
DWIDTH 8 0
BBX 8 16 0 -4
BITMAP
00
00
00
00
00
00
b6
49
49
49
49
db
00
00
00
00
ENDCHAR
STARTCHAR n
ENCODING 110
SWIDTH 666 0
DWIDTH 8 0
BBX 7 16 1 -4
BITMAP
00
00
00
00
00
00
D8
64
44
44
44
EE
00
00
00
00
ENDCHAR
STARTCHAR o
ENCODING 111
SWIDTH 666 0
DWIDTH 8 0
BBX 5 16 2 -4
BITMAP
00
00
00
00
00
00
70
88
88
88
88
70
00
00
00
00
ENDCHAR
STARTCHAR p
ENCODING 112
SWIDTH 666 0
DWIDTH 8 0
BBX 7 16 1 -4
BITMAP
00
00
00
00
00
00
DC
62
42
42
62
5C
40
40
E0
00
ENDCHAR
STARTCHAR q
ENCODING 113
SWIDTH 666 0
DWIDTH 8 0
BBX 7 16 1 -4
BITMAP
00
00
00
00
00
00
74
8C
84
84
8C
74
04
04
0E
00
ENDCHAR
STARTCHAR r
ENCODING 114
SWIDTH 666 0
DWIDTH 8 0
BBX 6 16 2 -4
BITMAP
00
00
00
00
00
00
dc
64
40
40
40
f0
00
00
00
00
ENDCHAR
STARTCHAR s
ENCODING 115
SWIDTH 666 0
DWIDTH 8 0
BBX 5 16 2 -4
BITMAP
00
00
00
00
00
00
78
80
70
08
88
F0
00
00
00
00
ENDCHAR
STARTCHAR t
ENCODING 116
SWIDTH 666 0
DWIDTH 8 0
BBX 7 16 1 -4
BITMAP
00
00
00
00
20
20
FC
20
20
20
22
1C
00
00
00
00
ENDCHAR
STARTCHAR u
ENCODING 117
SWIDTH 666 0
DWIDTH 8 0
BBX 7 16 1 -4
BITMAP
00
00
00
00
00
00
CC
44
44
44
4C
36
00
00
00
00
ENDCHAR
STARTCHAR v
ENCODING 118
SWIDTH 666 0
DWIDTH 8 0
BBX 7 16 1 -4
BITMAP
00
00
00
00
00
00
c6
44
28
28
10
10
00
00
00
00
ENDCHAR
STARTCHAR w
ENCODING 119
SWIDTH 666 0
DWIDTH 8 0
BBX 8 16 0 -4
BITMAP
00
00
00
00
00
00
c3
42
5a
3c
24
24
00
00
00
00
ENDCHAR
STARTCHAR x
ENCODING 120
SWIDTH 666 0
DWIDTH 8 0
BBX 6 16 1 -4
BITMAP
00
00
00
00
00
00
CC
48
30
30
48
CC
00
00
00
00
ENDCHAR
STARTCHAR y
ENCODING 121
SWIDTH 666 0
DWIDTH 8 0
BBX 7 16 1 -4
BITMAP
00
00
00
00
00
00
c6
44
44
28
28
10
10
20
60
00
ENDCHAR
STARTCHAR z
ENCODING 122
SWIDTH 666 0
DWIDTH 8 0
BBX 6 16 1 -4
BITMAP
00
00
00
00
00
00
Fc
88
10
20
44
Fc
00
00
00
00
ENDCHAR
STARTCHAR OpenBrace
ENCODING 123
SWIDTH 666 0
DWIDTH 8 0
BBX 5 16 2 -4
BITMAP
00
18
30
30
30
30
20
C0
20
30
30
30
30
18
00
00
ENDCHAR
STARTCHAR LongVertMark
ENCODING 124
SWIDTH 666 0
DWIDTH 8 0
BBX 1 16 4 -4
BITMAP
00
00
80
80
80
80
80
80
80
80
80
80
80
00
00
00
ENDCHAR
STARTCHAR CloseBrace
ENCODING 125
SWIDTH 666 0
DWIDTH 8 0
BBX 5 16 2 -4
BITMAP
00
C0
60
60
60
60
20
18
20
60
60
60
60
C0
00
00
ENDCHAR
STARTCHAR OneWavyLine
ENCODING 126
SWIDTH 666 0
DWIDTH 8 0
BBX 7 16 1 -4
BITMAP
00
00
00
00
00
20
72
9C
08
00
00
00
00
00
00
00
ENDCHAR
STARTCHAR MediumShading
ENCODING 127
SWIDTH 666 0
DWIDTH 8 0
BBX 8 16 0 -4
BITMAP
aa
55
aa
55
aa
55
aa
55
aa
55
aa
55
aa
55
aa
55
ENDCHAR
STARTCHAR InvExclamation
ENCODING 161
SWIDTH 666 0
DWIDTH 8 0
BBX 2 16 3 -4
BITMAP
00
00
00
C0
C0
00
00
C0
C0
C0
C0
C0
C0
C0
00
00
ENDCHAR
STARTCHAR CentSign
ENCODING 162
SWIDTH 666 0
DWIDTH 8 0
BBX 5 16 2 -4
BITMAP
00
00
00
20
20
78
88
80
80
88
70
20
20
00
00
00
ENDCHAR
STARTCHAR SterlingSign
ENCODING 163
SWIDTH 666 0
DWIDTH 8 0
BBX 7 16 1 -4
BITMAP
00
00
00
38
44
40
F8
40
F8
40
62
9c
00
00
00
00
ENDCHAR
STARTCHAR CurrencySymbol
ENCODING 164
SWIDTH 666 0
DWIDTH 8 0
BBX 7 16 1 -4
BITMAP
00
00
00
82
7c
44
44
44
7c
82
00
00
00
00
00
00
ENDCHAR
STARTCHAR Yensign
ENCODING 165
SWIDTH 666 0
DWIDTH 8 0
BBX 7 16 1 -4
BITMAP
00
00
00
EE
44
28
28
fe
10
fe
10
38
00
00
00
00
ENDCHAR
STARTCHAR BrokenVertMark
ENCODING 166
SWIDTH 666 0
DWIDTH 8 0
BBX 1 16 4 -4
BITMAP
00
00
80
80
80
80
80
00
80
80
80
80
80
00
00
00
ENDCHAR
STARTCHAR SectionMark
ENCODING 167
SWIDTH 666 0
DWIDTH 8 0
BBX 5 16 2 -4
BITMAP
00
00
70
98
c0
60
b0
98
c8
68
30
18
c8
70
00
00
ENDCHAR
STARTCHAR diaeresisAccnt
ENCODING 168
SWIDTH 666 0
DWIDTH 8 0
BBX 4 16 2 -4
BITMAP
00
00
00
90
90
00
00
00
00
00
00
00
00
00
00
00
ENDCHAR
STARTCHAR CopyrightSign
ENCODING 169
SWIDTH 666 0
DWIDTH 8 0
BBX 7 16 1 -4
BITMAP
00
00
00
38
44
9a
b2
b2
9a
44
38
00
00
00
00
00
ENDCHAR
STARTCHAR FemaleOrdinal
ENCODING 170
SWIDTH 666 0
DWIDTH 8 0
BBX 6 16 2 -4
BITMAP
00
00
70
08
78
88
74
00
fc
00
00
00
00
00
00
00
ENDCHAR
STARTCHAR DblOpenAnglQut
ENCODING 171
SWIDTH 666 0
DWIDTH 8 0
BBX 7 16 1 -4
BITMAP
00
00
00
00
12
36
6c
d8
6c
36
12
00
00
00
00
00
ENDCHAR
STARTCHAR NotSign
ENCODING 172
SWIDTH 666 0
DWIDTH 8 0
BBX 7 16 1 -4
BITMAP
00
00
00
00
00
00
00
FE
02
02
00
00
00
00
00
00
ENDCHAR
STARTCHAR SoftHyphen
ENCODING 173
SWIDTH 666 0
DWIDTH 8 0
BBX 7 16 1 -4
BITMAP
00
00
00
00
00
00
00
FE
00
00
00
00
00
00
00
00
ENDCHAR
STARTCHAR RegisTradeMark
ENCODING 174
SWIDTH 666 0
DWIDTH 8 0
BBX 7 16 1 -4
BITMAP
00
00
00
38
44
b2
aa
b2
aa
44
38
00
00
00
00
00
ENDCHAR
STARTCHAR macronAccent
ENCODING 175
SWIDTH 666 0
DWIDTH 8 0
BBX 7 16 1 -4
BITMAP
00
00
00
FE
00
00
00
00
00
00
00
00
00
00
00
00
ENDCHAR
STARTCHAR DegreeSign
ENCODING 176
SWIDTH 666 0
DWIDTH 8 0
BBX 4 16 2 -4
BITMAP
00
00
00
60
90
90
60
00
00
00
00
00
00
00
00
00
ENDCHAR
STARTCHAR PlusOverMinus
ENCODING 177
SWIDTH 666 0
DWIDTH 8 0
BBX 5 16 2 -4
BITMAP
00
00
00
20
20
f8
20
20
00
f8
00
00
00
00
00
00
ENDCHAR
STARTCHAR SupNumberTwo
ENCODING 178
SWIDTH 666 0
DWIDTH 8 0
BBX 4 16 2 -4
BITMAP
00
00
60
90
10
20
40
80
f0
00
00
00
00
00
00
00
ENDCHAR
STARTCHAR SupNumberThree
ENCODING 179
SWIDTH 666 0
DWIDTH 8 0
BBX 8 16 0 -4
BITMAP
00
00
60
90
10
60
10
90
60
00
00
00
00
00
00
00
ENDCHAR
STARTCHAR acuteAccent
ENCODING 180
SWIDTH 666 0
DWIDTH 8 0
BBX 4 16 3 -4
BITMAP
00
00
00
30
60
80
00
00
00
00
00
00
00
00
00
00
ENDCHAR
STARTCHAR muGreek
ENCODING 181
SWIDTH 666 0
DWIDTH 8 0
BBX 7 16 1 -4
BITMAP
00
00
00
00
00
00
22
22
22
44
64
5A
80
80
80
00
ENDCHAR
STARTCHAR ParagraphSign
ENCODING 182
SWIDTH 666 0
DWIDTH 8 0
BBX 7 16 1 -4
BITMAP
00
00
00
7e
f4
f4
f4
74
14
14
14
14
14
00
00
00
ENDCHAR
STARTCHAR middleDot
ENCODING 183
SWIDTH 666 0
DWIDTH 8 0
BBX 1 16 4 -4
BITMAP
00
00
00
00
00
00
80
80
00
00
00
00
00
00
00
00
ENDCHAR
STARTCHAR cedilla
ENCODING 184
SWIDTH 666 0
DWIDTH 8 0
BBX 4 16 2 -4
BITMAP
00
00
00
00
00
00
00
00
00
00
00
00
20
10
e0
00
ENDCHAR
STARTCHAR SupNumberOne
ENCODING 185
SWIDTH 666 0
DWIDTH 8 0
BBX 3 16 2 -4
BITMAP
00
00
20
60
a0
20
20
20
00
00
00
00
00
00
00
00
ENDCHAR
STARTCHAR MaleOrdinal
ENCODING 186
SWIDTH 666 0
DWIDTH 8 0
BBX 6 16 2 -4
BITMAP
00
00
70
88
88
88
70
00
f8
00
00
00
00
00
00
00
ENDCHAR
STARTCHAR DblClosAnglQut
ENCODING 187
SWIDTH 666 0
DWIDTH 8 0
BBX 7 16 1 -4
BITMAP
00
00
00
00
90
d8
6c
36
6c
d8
90
00
00
00
00
00
ENDCHAR
STARTCHAR FracOneFourth
ENCODING 188
SWIDTH 666 0
DWIDTH 8 0
BBX 8 16 0 -4
BITMAP
00
20
60
20
21
22
24
08
14
24
48
8A
12
1F
02
00
ENDCHAR
STARTCHAR FracOneHalf
ENCODING 189
SWIDTH 666 0
DWIDTH 8 0
BBX 8 16 0 -4
BITMAP
00
20
60
20
21
22
24
08
10
26
49
82
04
08
0F
00
ENDCHAR
STARTCHAR FracThreeFour
ENCODING 190
SWIDTH 666 0
DWIDTH 8 0
BBX 8 16 0 -4
BITMAP
00
60
10
60
11
92
64
08
14
24
48
8A
12
1F
02
00
ENDCHAR
STARTCHAR InvertQuestion
ENCODING 191
SWIDTH 666 0
DWIDTH 8 0
BBX 6 16 1 -4
BITMAP
00
00
00
30
30
00
00
30
30
60
C0
CC
CC
78
00
00
ENDCHAR
STARTCHAR Agrave
ENCODING 192
SWIDTH 666 0
DWIDTH 8 0
BBX 7 16 1 -4
BITMAP
60
30
08
10
10
28
28
44
7C
44
44
EE
00
00
00
00
ENDCHAR
STARTCHAR Aacute
ENCODING 193
SWIDTH 666 0
DWIDTH 8 0
BBX 7 16 1 -4
BITMAP
0C
18
20
10
10
28
28
44
7C
44
44
EE
00
00
00
00
ENDCHAR
STARTCHAR Acircumflex
ENCODING 194
SWIDTH 666 0
DWIDTH 8 0
BBX 7 16 1 -4
BITMAP
10
38
44
10
10
28
28
44
7C
44
44
EE
00
00
00
00
ENDCHAR
STARTCHAR Atilde
ENCODING 195
SWIDTH 666 0
DWIDTH 8 0
BBX 7 16 1 -4
BITMAP
30
5a
0c
10
10
28
28
44
7C
44
44
EE
00
00
00
00
ENDCHAR
STARTCHAR Adiaeresis
ENCODING 196
SWIDTH 666 0
DWIDTH 8 0
BBX 7 16 1 -4
BITMAP
24
24
00
10
10
28
28
44
7C
44
44
EE
00
00
00
00
ENDCHAR
STARTCHAR Abolle
ENCODING 197
SWIDTH 666 0
DWIDTH 8 0
BBX 7 16 1 -4
BITMAP
18
24
24
18
10
28
28
44
7C
44
44
EE
00
00
00
00
ENDCHAR
STARTCHAR AEdiphthong
ENCODING 198
SWIDTH 666 0
DWIDTH 8 0
BBX 8 16 0 -4
BITMAP
00
00
00
3F
19
28
2A
2E
7A
48
49
EF
00
00
00
00
ENDCHAR
STARTCHAR Ccedilla
ENCODING 199
SWIDTH 666 0
DWIDTH 8 0
BBX 6 16 1 -4
BITMAP
00
00
00
3C
44
80
80
80
80
80
44
38
10
08
70
00
ENDCHAR
STARTCHAR Egrave
ENCODING 200
SWIDTH 666 0
DWIDTH 8 0
BBX 6 16 1 -4
BITMAP
60
30
00
FC
44
40
48
78
48
40
44
FC
00
00
00
00
ENDCHAR
STARTCHAR Eacute
ENCODING 201
SWIDTH 666 0
DWIDTH 8 0
BBX 6 16 1 -4
BITMAP
0C
18
00
FC
44
40
48
78
48
40
44
FC
00
00
00
00
ENDCHAR
STARTCHAR Ecircumflex
ENCODING 202
SWIDTH 666 0
DWIDTH 8 0
BBX 6 16 1 -4
BITMAP
38
44
00
FC
44
40
48
78
48
40
44
FC
00
00
00
00
ENDCHAR
STARTCHAR Ediaeresis
ENCODING 203
SWIDTH 666 0
DWIDTH 8 0
BBX 6 16 1 -4
BITMAP
48
48
00
FC
44
40
48
78
48
40
44
FC
00
00
00
00
ENDCHAR
STARTCHAR Igrave
ENCODING 204
SWIDTH 666 0
DWIDTH 8 0
BBX 6 16 1 -4
BITMAP
e0
30
00
7c
10
10
10
10
10
10
10
7c
00
00
00
00
ENDCHAR
STARTCHAR Iacute
ENCODING 205
SWIDTH 666 0
DWIDTH 8 0
BBX 6 16 2 -4
BITMAP
1c
30
00
F8
20
20
20
20
20
20
20
F8
00
00
00
00
ENDCHAR
STARTCHAR Icircumflex
ENCODING 206
SWIDTH 666 0
DWIDTH 8 0
BBX 5 16 2 -4
BITMAP
30
48
00
F8
20
20
20
20
20
20
20
F8
00
00
00
00
ENDCHAR
STARTCHAR Idiaeresis
ENCODING 207
SWIDTH 666 0
DWIDTH 8 0
BBX 5 16 2 -4
BITMAP
50
50
00
F8
20
20
20
20
20
20
20
F8
00
00
00
00
ENDCHAR
STARTCHAR Eth
ENCODING 208
SWIDTH 666 0
DWIDTH 8 0
BBX 7 16 1 -4
BITMAP
00
00
00
F8
44
42
42
F2
42
42
44
F8
00
00
00
00
ENDCHAR
STARTCHAR Ntilde
ENCODING 209
SWIDTH 666 0
DWIDTH 8 0
BBX 7 16 1 -4
BITMAP
72
9C
00
CE
64
64
54
54
4c
4C
44
E4
00
00
00
00
ENDCHAR
STARTCHAR Ograve
ENCODING 210
SWIDTH 666 0
DWIDTH 8 0
BBX 7 16 1 -4
BITMAP
60
30
00
38
44
82
82
82
82
82
44
38
00
00
00
00
ENDCHAR
STARTCHAR Oacute
ENCODING 211
SWIDTH 666 0
DWIDTH 8 0
BBX 7 16 1 -4
BITMAP
0c
18
00
38
44
82
82
82
82
82
44
38
00
00
00
00
ENDCHAR
STARTCHAR Ocircumflex
ENCODING 212
SWIDTH 666 0
DWIDTH 8 0
BBX 7 16 1 -4
BITMAP
38
44
00
38
44
82
82
82
82
82
44
38
00
00
00
00
ENDCHAR
STARTCHAR Otilde
ENCODING 213
SWIDTH 666 0
DWIDTH 8 0
BBX 7 16 1 -4
BITMAP
72
9c
00
38
44
82
82
82
82
82
44
38
00
00
00
00
ENDCHAR
STARTCHAR Odiaeresis
ENCODING 214
SWIDTH 666 0
DWIDTH 8 0
BBX 7 16 1 -4
BITMAP
24
24
00
38
44
82
82
82
82
82
44
38
00
00
00
00
ENDCHAR
STARTCHAR MultiplySign
ENCODING 215
SWIDTH 666 0
DWIDTH 8 0
BBX 7 16 1 -4
BITMAP
00
00
00
00
82
44
28
10
28
44
82
00
00
00
00
00
ENDCHAR
STARTCHAR Ooblique
ENCODING 216
SWIDTH 666 0
DWIDTH 8 0
BBX 7 16 1 -4
BITMAP
00
00
02
3a
44
8A
8a
92
a2
A2
44
b8
80
00
00
00
ENDCHAR
STARTCHAR Ugrave
ENCODING 217
SWIDTH 666 0
DWIDTH 8 0
BBX 7 16 1 -4
BITMAP
60
30
00
ee
44
44
44
44
44
44
44
38
00
00
00
00
ENDCHAR
STARTCHAR Uacute
ENCODING 218
SWIDTH 666 0
DWIDTH 8 0
BBX 7 16 1 -4
BITMAP
0C
10
00
EE
44
44
44
44
44
44
44
38
00
00
00
00
ENDCHAR
STARTCHAR Ucircumflex
ENCODING 219
SWIDTH 666 0
DWIDTH 8 0
BBX 7 16 1 -4
BITMAP
38
44
00
EE
44
44
44
44
44
44
44
38
00
00
00
00
ENDCHAR
STARTCHAR Udiaeresis
ENCODING 220
SWIDTH 666 0
DWIDTH 8 0
BBX 7 16 1 -4
BITMAP
24
24
00
EE
44
44
44
44
44
44
44
38
00
00
00
00
ENDCHAR
STARTCHAR Yacute
ENCODING 221
SWIDTH 666 0
DWIDTH 8 0
BBX 7 16 1 -4
BITMAP
0e
18
00
EE
44
28
28
10
10
10
10
38
00
00
00
00
ENDCHAR
STARTCHAR Thorn
ENCODING 222
SWIDTH 666 0
DWIDTH 8 0
BBX 6 16 1 -4
BITMAP
00
00
00
E0
40
78
44
44
44
78
40
E0
00
00
00
00
ENDCHAR
STARTCHAR EsZetLigature
ENCODING 223
SWIDTH 666 0
DWIDTH 8 0
BBX 7 16 1 -4
BITMAP
00
00
38
44
44
48
58
44
42
42
52
4C
40
c0
00
00
ENDCHAR
STARTCHAR agrave
ENCODING 224
SWIDTH 666 0
DWIDTH 8 0
BBX 6 16 1 -4
BITMAP
00
00
c0
60
10
00
70
08
78
88
98
6C
00
00
00
00
ENDCHAR
STARTCHAR aacute
ENCODING 225
SWIDTH 666 0
DWIDTH 8 0
BBX 6 16 1 -4
BITMAP
00
00
0c
18
20
00
70
08
78
88
98
6C
00
00
00
00
ENDCHAR
STARTCHAR acircumflex
ENCODING 226
SWIDTH 666 0
DWIDTH 8 0
BBX 6 16 1 -4
BITMAP
00
00
20
70
88
00
70
08
78
88
98
6C
00
00
00
00
ENDCHAR
STARTCHAR atilde
ENCODING 227
SWIDTH 666 0
DWIDTH 8 0
BBX 6 16 1 -4
BITMAP
00
00
60
b4
18
00
70
08
78
88
98
6c
00
00
00
00
ENDCHAR
STARTCHAR adiaeresis
ENCODING 228
SWIDTH 666 0
DWIDTH 8 0
BBX 6 16 1 -4
BITMAP
00
00
00
48
48
00
70
08
78
88
98
6C
00
00
00
00
ENDCHAR
STARTCHAR abolle
ENCODING 229
SWIDTH 666 0
DWIDTH 8 0
BBX 6 16 1 -4
BITMAP
00
30
48
48
30
00
70
08
78
88
98
6C
00
00
00
00
ENDCHAR
STARTCHAR aedihthong
ENCODING 230
SWIDTH 666 0
DWIDTH 8 0
BBX 7 16 1 -4
BITMAP
00
00
00
00
00
00
6C
12
7E
90
92
6C
00
00
00
00
ENDCHAR
STARTCHAR ccedilla
ENCODING 231
SWIDTH 666 0
DWIDTH 8 0
BBX 5 16 2 -4
BITMAP
00
00
00
00
00
00
78
88
80
80
88
70
20
10
60
00
ENDCHAR
STARTCHAR egrave
ENCODING 232
SWIDTH 666 0
DWIDTH 8 0
BBX 5 16 2 -4
BITMAP
00
00
c0
60
10
00
70
88
F8
80
88
70
00
00
00
00
ENDCHAR
STARTCHAR eacute
ENCODING 233
SWIDTH 666 0
DWIDTH 8 0
BBX 6 16 2 -4
BITMAP
00
00
0c
18
20
00
70
88
F8
80
88
70
00
00
00
00
ENDCHAR
STARTCHAR ecircumflex
ENCODING 234
SWIDTH 666 0
DWIDTH 8 0
BBX 5 16 2 -4
BITMAP
00
00
20
70
88
00
70
88
F8
80
88
70
00
00
00
00
ENDCHAR
STARTCHAR ediaeresis
ENCODING 235
SWIDTH 666 0
DWIDTH 8 0
BBX 5 16 2 -4
BITMAP
00
00
00
48
48
00
70
88
F8
80
88
70
00
00
00
00
ENDCHAR
STARTCHAR igrave
ENCODING 236
SWIDTH 666 0
DWIDTH 8 0
BBX 6 16 1 -4
BITMAP
00
00
c0
60
10
00
70
10
10
10
10
7C
00
00
00
00
ENDCHAR
STARTCHAR iacute
ENCODING 237
SWIDTH 666 0
DWIDTH 8 0
BBX 5 16 2 -4
BITMAP
00
00
18
30
40
00
E0
20
20
20
20
F8
00
00
00
00
ENDCHAR
STARTCHAR icircumflex
ENCODING 238
SWIDTH 666 0
DWIDTH 8 0
BBX 5 16 2 -4
BITMAP
00
00
20
70
88
00
e0
20
20
20
20
f8
00
00
00
00
ENDCHAR
STARTCHAR idiaeresis
ENCODING 239
SWIDTH 666 0
DWIDTH 8 0
BBX 5 16 2 -4
BITMAP
00
00
00
50
50
00
E0
20
20
20
20
F8
00
00
00
00
ENDCHAR
STARTCHAR ethIcelandic
ENCODING 240
SWIDTH 666 0
DWIDTH 8 0
BBX 5 16 2 -4
BITMAP
00
00
80
58
20
d0
10
78
88
88
88
70
00
00
00
00
ENDCHAR
STARTCHAR ntilde
ENCODING 241
SWIDTH 666 0
DWIDTH 8 0
BBX 7 16 1 -4
BITMAP
00
00
60
b4
18
00
D8
64
44
44
44
EE
00
00
00
00
ENDCHAR
STARTCHAR ograve
ENCODING 242
SWIDTH 666 0
DWIDTH 8 0
BBX 5 16 2 -4
BITMAP
00
00
c0
60
10
00
70
88
88
88
88
70
00
00
00
00
ENDCHAR
STARTCHAR oacute
ENCODING 243
SWIDTH 666 0
DWIDTH 8 0
BBX 6 16 2 -4
BITMAP
00
00
0c
18
20
00
70
88
88
88
88
70
00
00
00
00
ENDCHAR
STARTCHAR ocircumflex
ENCODING 244
SWIDTH 666 0
DWIDTH 8 0
BBX 5 16 2 -4
BITMAP
00
00
20
70
88
00
70
88
88
88
88
70
00
00
00
00
ENDCHAR
STARTCHAR otilde
ENCODING 245
SWIDTH 666 0
DWIDTH 8 0
BBX 6 16 1 -4
BITMAP
00
00
60
b4
18
00
70
88
88
88
88
70
00
00
00
00
ENDCHAR
STARTCHAR odiaeresis
ENCODING 246
SWIDTH 666 0
DWIDTH 8 0
BBX 5 16 2 -4
BITMAP
00
00
00
48
48
00
70
88
88
88
88
70
00
00
00
00
ENDCHAR
STARTCHAR DivideSign
ENCODING 247
SWIDTH 666 0
DWIDTH 8 0
BBX 7 16 1 -4
BITMAP
00
00
00
00
10
10
00
FE
00
10
10
00
00
00
00
00
ENDCHAR
STARTCHAR ooblique
ENCODING 248
SWIDTH 666 0
DWIDTH 8 0
BBX 5 16 2 -4
BITMAP
00
00
00
00
08
08
70
98
A8
A8
C8
70
80
80
00
00
ENDCHAR
STARTCHAR ugrave
ENCODING 249
SWIDTH 666 0
DWIDTH 8 0
BBX 7 16 1 -4
BITMAP
00
00
c0
60
10
00
CC
44
44
44
4C
36
00
00
00
00
ENDCHAR
STARTCHAR uacute
ENCODING 250
SWIDTH 666 0
DWIDTH 8 0
BBX 7 16 1 -4
BITMAP
00
00
06
0C
10
00
CC
44
44
44
4C
36
00
00
00
00
ENDCHAR
STARTCHAR ucircumflex
ENCODING 251
SWIDTH 666 0
DWIDTH 8 0
BBX 7 16 1 -4
BITMAP
00
00
10
38
44
00
CC
44
44
44
4C
36
00
00
00
00
ENDCHAR
STARTCHAR udiaeresis
ENCODING 252
SWIDTH 666 0
DWIDTH 8 0
BBX 7 16 1 -4
BITMAP
00
00
00
48
48
00
CC
44
44
44
4C
36
00
00
00
00
ENDCHAR
STARTCHAR yacute
ENCODING 253
SWIDTH 666 0
DWIDTH 8 0
BBX 7 16 1 -4
BITMAP
00
00
06
0c
10
00
c6
44
44
28
28
10
10
20
60
00
ENDCHAR
STARTCHAR thorn
ENCODING 254
SWIDTH 666 0
DWIDTH 8 0
BBX 7 16 1 -4
BITMAP
00
00
00
C0
40
40
5C
62
42
42
62
5C
40
40
E0
00
ENDCHAR
STARTCHAR ydiaeresis
ENCODING 255
SWIDTH 666 0
DWIDTH 8 0
BBX 7 16 1 -4
BITMAP
00
00
00
24
24
00
c6
44
44
28
28
10
10
20
60
00
ENDCHAR
ENDFONT
